<svg width="52" height="35" viewBox="0 0 52 35" fill="none" xmlns="http://www.w3.org/2000/svg">
<rect x="1.5" y="1.5" width="42" height="28" rx="4.5" stroke="#131821" stroke-width="3"/>
<path d="M20.7528 6.54545V24H17.9403L9.71591 12.1108H9.57102V24H6.40909V6.54545H9.23864L17.4545 18.4432H17.608V6.54545H20.7528ZM39.1385 12.4347H35.951C35.8601 11.9119 35.6925 11.4489 35.4482 11.0455C35.2038 10.6364 34.8999 10.2898 34.5362 10.0057C34.1726 9.72159 33.7578 9.50852 33.2919 9.36648C32.8317 9.21875 32.3345 9.14489 31.8004 9.14489C30.8516 9.14489 30.0107 9.38352 29.2777 9.86079C28.5447 10.3324 27.9709 11.0256 27.5561 11.9403C27.1413 12.8494 26.9339 13.9602 26.9339 15.2727C26.9339 16.608 27.1413 17.733 27.5561 18.6477C27.9766 19.5568 28.5504 20.2443 29.2777 20.7102C30.0107 21.1705 30.8487 21.4006 31.7919 21.4006C32.3146 21.4006 32.8033 21.3324 33.2578 21.196C33.718 21.054 34.13 20.8466 34.4936 20.5739C34.8629 20.3011 35.1726 19.9659 35.4226 19.5682C35.6783 19.1705 35.8544 18.7159 35.951 18.2045L39.1385 18.2216C39.0192 19.0511 38.7607 19.8295 38.3629 20.5568C37.9709 21.2841 37.4567 21.9261 36.8203 22.483C36.1839 23.0341 35.4396 23.4659 34.5874 23.7784C33.7351 24.0852 32.7891 24.2386 31.7493 24.2386C30.2152 24.2386 28.8459 23.8835 27.6413 23.1733C26.4368 22.4631 25.4879 21.4375 24.7947 20.0966C24.1016 18.7557 23.755 17.1477 23.755 15.2727C23.755 13.392 24.1044 11.7841 24.8033 10.4489C25.5021 9.10795 26.4538 8.08239 27.6584 7.37216C28.8629 6.66193 30.2266 6.30682 31.7493 6.30682C32.7209 6.30682 33.6243 6.44318 34.4595 6.71591C35.2947 6.98864 36.0391 7.3892 36.6925 7.91761C37.3459 8.44034 37.8828 9.08239 38.3033 9.84375C38.7294 10.5994 39.0078 11.4631 39.1385 12.4347Z" fill="black"/>
<path d="M4.6875 28.7727H40.3232V30.4091H4.6875V28.7727Z" fill="black"/>
<path d="M20.7528 6.54545V24H17.9403L9.71591 12.1108H9.57102V24H6.40909V6.54545H9.23864L17.4545 18.4432H17.608V6.54545H20.7528ZM39.1385 12.4347H35.951C35.8601 11.9119 35.6925 11.4489 35.4482 11.0455C35.2038 10.6364 34.8999 10.2898 34.5362 10.0057C34.1726 9.72159 33.7578 9.50852 33.2919 9.36648C32.8317 9.21875 32.3345 9.14489 31.8004 9.14489C30.8516 9.14489 30.0107 9.38352 29.2777 9.86079C28.5447 10.3324 27.9709 11.0256 27.5561 11.9403C27.1413 12.8494 26.9339 13.9602 26.9339 15.2727C26.9339 16.608 27.1413 17.733 27.5561 18.6477C27.9766 19.5568 28.5504 20.2443 29.2777 20.7102C30.0107 21.1705 30.8487 21.4006 31.7919 21.4006C32.3146 21.4006 32.8033 21.3324 33.2578 21.196C33.718 21.054 34.13 20.8466 34.4936 20.5739C34.8629 20.3011 35.1726 19.9659 35.4226 19.5682C35.6783 19.1705 35.8544 18.7159 35.951 18.2045L39.1385 18.2216C39.0192 19.0511 38.7607 19.8295 38.3629 20.5568C37.9709 21.2841 37.4567 21.9261 36.8203 22.483C36.1839 23.0341 35.4396 23.4659 34.5874 23.7784C33.7351 24.0852 32.7891 24.2386 31.7493 24.2386C30.2152 24.2386 28.8459 23.8835 27.6413 23.1733C26.4368 22.4631 25.4879 21.4375 24.7947 20.0966C24.1016 18.7557 23.755 17.1477 23.755 15.2727C23.755 13.392 24.1044 11.7841 24.8033 10.4489C25.5021 9.10795 26.4538 8.08239 27.6584 7.37216C28.8629 6.66193 30.2266 6.30682 31.7493 6.30682C32.7209 6.30682 33.6243 6.44318 34.4595 6.71591C35.2947 6.98864 36.0391 7.3892 36.6925 7.91761C37.3459 8.44034 37.8828 9.08239 38.3033 9.84375C38.7294 10.5994 39.0078 11.4631 39.1385 12.4347Z" fill="black"/>
<path d="M4.6875 28.7727H40.3232V30.4091H4.6875V28.7727Z" fill="black"/>
<rect x="36" y="24" width="16" height="11" fill="white"/>
<path d="M39.826 34H36.8686V25.2727H39.8857C40.7521 25.2727 41.4964 25.4474 42.1186 25.7969C42.7436 26.1435 43.2237 26.642 43.5589 27.2926C43.8942 27.9432 44.0618 28.7216 44.0618 29.6278C44.0618 30.5369 43.8928 31.3182 43.5547 31.9716C43.2195 32.625 42.7351 33.1264 42.1016 33.4759C41.4709 33.8253 40.7124 34 39.826 34ZM38.4496 32.6321H39.7493C40.3572 32.6321 40.8643 32.5213 41.2706 32.2997C41.6768 32.0753 41.9822 31.7415 42.1868 31.2983C42.3913 30.8523 42.4936 30.2955 42.4936 29.6278C42.4936 28.9602 42.3913 28.4062 42.1868 27.9659C41.9822 27.5227 41.6797 27.1918 41.2791 26.973C40.8814 26.7514 40.3871 26.6406 39.7962 26.6406H38.4496V32.6321ZM45.5639 34V25.2727H51.2401V26.598H47.1449V28.9673H50.946V30.2926H47.1449V32.6747H51.2741V34H45.5639Z" fill="#131821"/>
<path d="M36.0078 36.3864H51.9943V37.2045H36.0078V36.3864Z" fill="#131821"/>
</svg>
